<svg width="64" height="64" viewBox="0 0 64 64" fill="none" xmlns="http://www.w3.org/2000/svg">
<circle cx="32" cy="32" r="31.7949" stroke="#555555" stroke-width="0.410256"/>
<path fill-rule="evenodd" clip-rule="evenodd" d="M15.5897 32C15.5897 31.6858 15.7132 31.3843 15.933 31.1621C16.1528 30.9399 16.451 30.815 16.7618 30.815H44.4066L37.0295 23.3589C36.8094 23.1364 36.6858 22.8346 36.6858 22.5199C36.6858 22.2052 36.8094 21.9034 37.0295 21.6809C37.2496 21.4584 37.5481 21.3334 37.8594 21.3334C38.1706 21.3334 38.4691 21.4584 38.6892 21.6809L48.0659 31.161C48.175 31.2711 48.2616 31.4019 48.3207 31.5459C48.3798 31.6898 48.4102 31.8442 48.4102 32C48.4102 32.1559 48.3798 32.3103 48.3207 32.4542C48.2616 32.5982 48.175 32.729 48.0659 32.839L38.6892 42.3192C38.4691 42.5417 38.1706 42.6667 37.8594 42.6667C37.5481 42.6667 37.2496 42.5417 37.0295 42.3192C36.8094 42.0967 36.6858 41.7949 36.6858 41.4802C36.6858 41.1655 36.8094 40.8637 37.0295 40.6412L44.4066 33.1851H16.7618C16.451 33.1851 16.1528 33.0602 15.933 32.838C15.7132 32.6157 15.5897 32.3143 15.5897 32Z" fill="#616161"/>
</svg>
